<?xml version="1.0" standalone="no"?>
<!DOCTYPE svg PUBLIC "-//W3C//DTD SVG 20010904//EN"
 "http://www.w3.org/TR/2001/REC-SVG-20010904/DTD/svg10.dtd">
<svg version="1.0" xmlns="http://www.w3.org/2000/svg"
 width="1080.000000pt" height="1167.000000pt" viewBox="0 0 1080.000000 1167.000000"
 preserveAspectRatio="xMidYMid meet">

<g transform="translate(0.000000,1167.000000) scale(0.100000,-0.100000)"
fill="#000000" stroke="none">
<path d="M0 11259 l0 -412 69 7 c54 5 87 2 149 -14 44 -11 103 -20 131 -20 28
0 51 -4 51 -10 0 -5 17 -12 37 -16 21 -4 49 -12 63 -19 14 -7 41 -16 60 -20
19 -4 47 -16 62 -26 14 -11 42 -19 62 -19 20 0 36 -4 36 -10 0 -18 85 -48 160
-55 47 -4 87 -14 108 -27 26 -16 38 -18 61 -10 28 10 78 6 96 -8 6 -5 55 -16
110 -25 55 -9 114 -25 131 -36 20 -12 50 -19 79 -19 36 0 56 -6 81 -25 18 -14
42 -25 53 -25 11 0 36 -9 55 -19 19 -11 51 -23 70 -27 21 -3 36 -12 36 -20 0
-8 6 -14 13 -14 15 0 70 -27 196 -96 126 -69 195 -87 321 -84 98 2 107 3 132
27 15 15 35 49 44 76 9 27 24 57 33 66 9 9 27 46 40 81 13 36 32 74 42 86 11
11 19 30 19 42 0 12 6 22 13 22 27 0 66 26 72 48 3 12 12 22 20 22 8 0 15 7
15 15 0 8 9 15 21 15 13 0 23 10 30 28 9 26 12 27 92 29 114 4 123 6 119 31
-2 14 6 27 25 39 15 10 39 28 53 40 14 13 28 23 32 23 3 0 13 6 20 13 21 19
56 37 73 37 8 0 15 4 15 9 0 5 13 11 29 14 15 3 42 17 59 31 16 15 37 26 46
26 9 0 36 19 61 43 l44 44 -39 29 c-22 16 -40 35 -40 42 0 7 -15 12 -42 12
-43 0 -108 18 -119 34 -4 5 -19 6 -33 2 -14 -3 -34 -2 -43 2 -33 16 -120 42
-143 42 -12 0 -52 9 -89 21 -117 37 -127 39 -169 39 -29 0 -48 6 -62 20 -11
11 -33 20 -48 20 -15 0 -45 9 -66 19 -21 11 -51 23 -67 26 -16 4 -31 11 -34
16 -4 5 -14 4 -24 -3 -15 -9 -26 -7 -55 12 l-37 22 19 22 c15 15 22 42 27 99
l7 77 -1191 0 -1191 0 0 -411z"/>
<path d="M3615 11553 c5 -65 9 -353 9 -640 0 -288 4 -523 8 -523 4 0 7 -70 5
-155 -1 -124 1 -158 12 -165 11 -6 13 -30 8 -124 -5 -76 -4 -116 3 -116 6 0
-2 -18 -16 -40 -15 -22 -32 -40 -39 -40 -8 0 -22 -11 -32 -25 -17 -24 -24 -26
-138 -31 -65 -3 -127 -10 -137 -15 -12 -7 -18 -6 -18 1 0 16 -121 5 -130 -11
-5 -6 -15 -9 -23 -6 -16 6 -54 -16 -111 -65 l-39 -34 3 -225 c5 -389 7 -423
16 -459 12 -49 47 -90 75 -90 33 0 109 39 109 56 0 27 31 29 51 3 l18 -24 28
29 27 29 14 -21 c8 -12 22 -22 32 -22 10 0 23 -7 30 -15 20 -24 60 -18 88 12
l25 27 10 -22 c10 -23 36 -29 52 -13 20 18 71 22 84 7 10 -12 18 -13 32 -6 10
6 40 10 66 10 201 -2 221 -1 226 15 4 9 19 15 42 15 29 0 38 -5 47 -26 12 -26
14 -26 89 -22 l76 5 12 -34 c14 -36 22 -40 41 -18 19 23 47 18 54 -9 7 -30 37
-41 68 -25 24 12 86 74 103 103 15 25 110 46 232 51 196 8 228 8 253 1 27 -7
95 13 73 21 -20 7 -15 23 7 23 11 0 20 -4 20 -9 0 -6 11 -22 25 -37 l26 -28
50 18 c60 22 69 17 105 -61 24 -50 54 -71 54 -38 0 34 26 96 43 101 9 3 33 0
52 -6 24 -8 40 -8 54 -1 11 6 29 11 41 11 11 0 31 7 43 15 21 13 26 13 58 -9
19 -13 57 -28 84 -32 29 -4 56 -15 65 -26 15 -18 16 -18 52 7 l38 25 21 -21
c15 -15 23 -18 29 -9 8 13 128 5 144 -10 4 -4 30 3 56 16 26 13 57 24 69 24
11 0 37 11 57 25 20 14 55 29 78 35 22 5 66 23 96 39 37 19 62 26 75 21 21 -8
45 2 85 36 14 11 43 26 66 32 25 7 54 27 77 52 19 22 45 43 55 48 11 4 58 43
104 87 84 80 148 135 223 190 22 16 68 56 101 90 55 55 78 73 132 110 61 42
148 128 155 155 4 14 -3 20 -32 25 -20 4 -49 12 -66 19 -16 7 -43 18 -58 25
-15 6 -30 19 -34 28 -4 10 -11 21 -16 24 -11 8 -11 66 3 414 7 149 12 279 11
289 0 26 -17 40 -76 60 -27 10 -59 21 -70 26 -27 11 -67 20 -140 29 -34 4 -71
13 -83 20 -12 7 -26 10 -30 7 -4 -2 -47 6 -94 19 -48 12 -89 21 -91 19 -2 -3
-37 9 -77 25 -40 16 -95 35 -124 42 -28 6 -69 20 -91 30 -42 19 -147 50 -177
52 -10 1 -18 4 -18 8 0 4 -15 11 -32 14 -18 4 -37 11 -43 15 -5 5 -39 13 -75
19 -61 11 -89 20 -134 43 -10 5 -44 16 -75 24 -31 8 -65 19 -76 24 -11 6 -51
19 -90 29 -38 10 -88 26 -110 34 -22 9 -56 16 -76 17 l-37 0 2 -50 c1 -62 -14
-64 -34 -4 -19 57 -71 98 -142 113 -27 6 -59 17 -71 24 -12 6 -26 12 -32 13
-35 3 -96 19 -130 34 -22 10 -57 21 -77 25 -21 4 -38 11 -38 16 0 5 -15 9 -32
9 -18 0 -41 7 -52 15 -10 8 -38 17 -62 21 -25 3 -55 15 -68 25 -16 13 -40 19
-74 19 -30 0 -54 5 -61 14 -13 16 -94 38 -126 35 -37 -4 -55 1 -55 14 0 9 -16
14 -52 15 -28 0 -54 5 -57 10 -3 5 -35 12 -71 16 -36 4 -81 9 -100 12 -27 4
-41 0 -61 -18 -15 -13 -28 -32 -30 -43 -3 -11 -11 -20 -19 -20 -11 0 -16 -15
-18 -57 -2 -36 1 -58 8 -58 5 0 10 7 10 15 0 8 5 15 10 15 6 0 9 -12 8 -27 -5
-78 0 -90 40 -97 20 -4 57 -6 81 -6 24 1 58 -5 75 -13 17 -8 57 -18 89 -22 31
-3 57 -11 57 -16 0 -5 9 -9 20 -9 12 0 31 -7 43 -15 12 -8 56 -19 97 -25 84
-12 185 -36 214 -52 11 -6 45 -14 75 -19 70 -10 157 -32 167 -42 4 -4 21 -7
38 -7 18 0 40 -6 51 -14 26 -17 95 -30 95 -17 0 10 71 3 80 -8 23 -28 176 -45
203 -23 11 9 20 7 43 -13 18 -16 37 -24 52 -22 12 2 22 1 22 -3 0 -6 54 -20
138 -36 12 -3 22 -12 22 -22 1 -16 1 -16 11 1 10 18 39 24 39 8 0 -14 37 -21
154 -31 60 -5 112 -13 115 -18 3 -5 26 -13 51 -17 25 -4 54 -12 64 -17 11 -6
39 -10 63 -10 25 1 52 -3 61 -8 23 -14 215 -61 272 -67 25 -3 47 -9 51 -14 3
-5 39 -19 80 -30 81 -24 117 -52 162 -129 31 -54 32 -59 29 -366 l-2 -242 -40
-39 c-25 -26 -55 -44 -82 -51 -103 -26 -658 -46 -783 -29 -29 4 -65 3 -85 -4
-48 -14 -149 -31 -185 -29 -85 3 -426 -1 -446 -6 -13 -3 -139 -10 -279 -15
-299 -10 -471 -18 -520 -24 -19 -3 -162 -8 -318 -11 l-282 -6 -46 26 c-26 14
-55 26 -65 26 -24 0 -25 16 -2 28 15 9 15 11 -4 22 -19 12 -20 21 -16 248 2
169 0 238 -9 243 -7 5 -8 13 -2 25 10 21 13 694 3 694 -14 0 -15 96 -2 130 11
25 14 67 11 150 -1 63 -2 170 -1 238 l1 122 -75 0 -76 0 8 -117z"/>
<path d="M8560 11657 c0 -7 5 -18 12 -25 8 -8 12 -103 15 -334 3 -383 17 -815
25 -824 12 -11 107 -11 111 0 3 8 92 11 293 11 296 0 351 -6 432 -48 24 -11
72 -83 72 -106 0 -7 9 -20 19 -29 17 -14 20 -32 22 -112 2 -147 1 -165 -21
-188 -11 -12 -20 -26 -20 -32 0 -7 -6 -10 -12 -7 -7 2 -12 13 -11 23 3 26 -16
84 -28 84 -5 0 -9 11 -9 24 0 33 -21 90 -37 99 -7 4 -13 18 -13 30 -1 44 -67
96 -132 102 -9 1 -25 6 -35 11 -21 9 -41 11 -186 20 -88 5 -111 4 -125 -9 -9
-8 -28 -17 -42 -21 -14 -3 -32 -10 -40 -16 -13 -9 -13 -12 4 -25 10 -8 23 -12
28 -9 16 10 48 -7 48 -27 0 -19 -18 -24 -64 -19 -10 1 -22 -3 -26 -10 -9 -14
-27 -15 -122 -5 -59 5 -78 4 -78 -5 0 -7 -7 -10 -16 -6 -24 9 -57 -13 -51 -34
4 -16 -2 -18 -47 -18 -76 0 -76 0 -76 -21 0 -19 -18 -31 -50 -31 -9 0 -23 -7
-30 -15 -11 -13 -8 -15 21 -16 19 0 28 -3 22 -6 -7 -2 -13 -20 -13 -38 l0 -33
38 13 c21 8 38 9 40 4 2 -5 21 -9 43 -9 28 0 39 4 39 15 0 17 2 18 24 9 9 -3
16 -12 16 -19 0 -13 43 -25 91 -25 20 0 29 5 29 16 0 21 38 10 66 -20 23 -26
90 -41 97 -23 2 7 10 0 17 -16 8 -15 23 -30 34 -33 12 -3 28 -20 37 -37 l16
-33 -69 -2 c-41 -1 -77 3 -89 11 -14 9 -22 9 -27 1 -5 -8 -35 -9 -106 -3 -114
10 -182 -2 -191 -32 -9 -26 2 -39 30 -39 13 0 27 -4 30 -10 3 -5 30 -10 59
-10 28 0 56 -4 61 -9 6 -5 34 -16 62 -26 29 -9 55 -21 58 -26 4 -5 19 -9 35
-9 16 0 41 -5 57 -12 15 -6 43 -12 62 -14 18 -2 41 -10 51 -19 11 -10 26 -14
43 -10 33 9 37 0 51 -112 12 -91 5 -163 -16 -163 -5 0 -8 -6 -8 -14 0 -8 -9
-18 -20 -21 -11 -3 -20 -15 -20 -26 0 -10 -4 -19 -10 -19 -5 0 -10 -19 -11
-42 0 -25 -10 -62 -24 -88 -14 -25 -27 -52 -31 -62 -3 -9 -17 -19 -30 -22 -27
-7 -33 -26 -8 -26 16 0 15 -25 -2 -26 -5 0 -26 -8 -46 -17 -41 -17 -50 -37
-18 -37 11 0 20 -7 20 -15 0 -8 7 -16 15 -16 8 -1 20 -3 25 -4 6 -1 17 -3 25
-4 16 -1 21 -31 5 -31 -6 0 -6 -9 0 -25 8 -21 6 -27 -13 -36 -42 -23 -47 -35
-47 -113 l0 -76 53 0 c41 0 55 4 65 20 40 65 37 -42 -5 -149 -20 -52 -24 -77
-21 -129 l4 -65 -42 -30 c-23 -16 -47 -39 -52 -51 -31 -61 -72 -205 -72 -251
0 -31 -8 -66 -20 -90 -15 -30 -22 -66 -25 -139 -3 -55 0 -104 5 -110 5 -7 3
-29 -7 -58 -14 -45 -14 -48 6 -77 12 -16 21 -41 21 -56 0 -14 7 -34 16 -42 10
-11 14 -25 10 -42 -24 -106 -18 -152 26 -193 l30 -28 -30 -49 c-17 -27 -30
-62 -30 -78 1 -15 -2 -38 -6 -50 -5 -17 3 -32 44 -72 27 -27 50 -56 50 -63 1
-26 28 -47 68 -54 39 -6 41 -8 38 -36 -4 -32 15 -48 59 -48 20 0 28 -7 36 -30
6 -16 17 -30 25 -30 8 0 14 -4 14 -10 0 -5 9 -10 20 -10 26 0 37 -27 21 -52
-15 -24 -4 -40 38 -58 22 -9 31 -21 36 -46 4 -23 14 -39 30 -46 19 -9 23 -16
18 -38 -3 -15 0 -31 6 -34 6 -4 11 -17 11 -29 1 -12 19 -40 41 -62 22 -22 48
-52 57 -67 9 -16 20 -28 24 -28 4 0 8 -7 8 -14 0 -8 14 -35 30 -59 17 -25 30
-52 30 -60 0 -9 5 -19 10 -22 6 -4 29 -29 50 -57 32 -40 38 -53 30 -68 -6 -10
-10 -46 -10 -79 0 -53 3 -62 27 -81 28 -22 53 -83 53 -130 0 -16 11 -34 30
-50 27 -22 30 -29 22 -50 -7 -18 -5 -33 5 -54 12 -23 13 -33 3 -52 -11 -19 -9
-29 9 -64 15 -30 22 -62 23 -113 2 -72 -1 -81 -57 -187 -35 -66 -44 -89 -55
-135 -6 -27 -20 -59 -31 -71 -10 -11 -19 -25 -19 -32 0 -6 -9 -16 -20 -22 -26
-14 -25 -30 5 -62 14 -15 25 -30 25 -35 0 -4 -14 -22 -32 -40 -25 -26 -29 -35
-19 -47 8 -10 9 -16 1 -21 -5 -3 -10 -19 -10 -35 0 -16 -4 -32 -10 -35 -20
-13 -9 -36 27 -58 l38 -22 -29 -5 c-50 -9 -54 -32 -13 -73 43 -41 44 -47 18
-69 -11 -9 -23 -34 -26 -55 -3 -21 -11 -49 -16 -63 -9 -21 -7 -28 20 -52 29
-26 31 -33 31 -92 0 -36 4 -68 10 -71 12 -7 -15 -65 -30 -65 -6 0 -10 -15 -10
-34 0 -19 -5 -38 -11 -41 -6 -4 -7 -19 -4 -36 4 -16 2 -29 -3 -29 -11 0 -32
-45 -32 -68 0 -11 -13 -22 -32 -30 l-32 -12 24 -25 c20 -21 21 -25 7 -31 -12
-4 -15 -13 -11 -31 5 -19 2 -25 -15 -30 -14 -4 -21 -13 -21 -31 0 -14 3 -22 7
-19 11 12 33 -15 33 -41 0 -13 -10 -33 -21 -43 -12 -11 -19 -25 -16 -34 7 -16
67 -46 135 -66 43 -13 78 -39 51 -39 -8 0 -43 10 -79 21 -36 11 -89 20 -119
20 -52 0 -79 -9 -53 -18 17 -6 15 -23 -3 -23 -20 0 -20 -53 0 -70 8 -7 13 -15
11 -19 -7 -11 49 -86 81 -106 36 -23 67 -74 78 -125 9 -43 27 -64 68 -81 18
-7 38 -17 46 -23 8 -6 35 -16 60 -22 42 -11 43 -12 14 -13 -44 -1 -34 -24 24
-53 24 -12 49 -31 55 -41 6 -12 16 -16 26 -13 11 4 8 -1 -6 -11 -18 -15 -21
-23 -13 -49 11 -40 46 -77 99 -104 49 -26 60 -39 41 -51 -11 -6 -5 -18 26 -49
22 -23 52 -49 66 -57 26 -16 65 -80 55 -91 -3 -2 8 -22 24 -42 17 -21 30 -41
30 -44 0 -18 81 -85 123 -101 26 -10 47 -22 47 -26 0 -5 10 -9 21 -9 12 0 29
-9 38 -19 10 -12 33 -21 57 -23 41 -3 50 -20 14 -28 -12 -3 -21 -9 -20 -14 1
-5 -4 -13 -12 -17 -9 -6 -7 -9 10 -9 12 0 22 -3 22 -8 0 -4 -10 -12 -22 -17
-16 -7 -24 -20 -26 -41 -3 -33 22 -58 99 -98 35 -18 36 -20 22 -47 -8 -16 -11
-33 -8 -39 11 -18 75 -40 139 -47 59 -8 61 -9 61 -38 0 -21 -7 -33 -24 -41
l-23 -12 31 -23 c16 -12 28 -26 26 -30 -3 -4 11 -16 30 -28 l35 -20 0 5129 0
5130 -1120 0 c-912 0 -1120 -2 -1120 -13z m397 -1343 c-3 -3 -12 -4 -19 -1 -8
3 -5 6 6 6 11 1 17 -2 13 -5z m493 -700 c0 -71 -1 -87 -5 -110 -5 -23 -47 -46
-70 -38 -8 4 -15 1 -15 -5 0 -6 -6 -11 -14 -11 -21 0 -29 -34 -17 -76 8 -30 6
-48 -9 -93 -11 -30 -20 -57 -20 -60 0 -2 -3 -1 -6 2 -9 8 -44 -32 -44 -49 0
-25 -23 -27 -41 -3 -12 15 -18 39 -17 64 1 38 1 38 5 7 5 -39 29 -38 26 2 -1
14 2 26 8 26 5 0 9 18 9 40 0 29 4 40 15 40 11 0 16 12 17 43 l1 42 4 -42 c3
-29 9 -43 19 -43 8 0 14 5 14 11 0 5 -5 7 -11 3 -8 -5 -8 -1 0 14 14 25 14 43
1 22 -8 -12 -10 -12 -10 -1 0 8 8 20 18 28 16 13 16 14 -5 29 -13 9 -23 25
-23 36 0 17 3 18 15 8 8 -7 23 -9 32 -6 15 6 15 8 3 17 -13 8 -12 12 8 28 16
14 22 30 22 60 l0 41 40 0 c31 0 40 4 40 17 0 9 2 14 5 12 2 -3 5 -27 5 -55z
m-250 -144 l0 -40 -40 0 -40 0 0 40 0 40 40 0 40 0 0 -40z m180 -84 c0 -3 -4
-8 -10 -11 -5 -3 -10 -1 -10 4 0 6 5 11 10 11 6 0 10 -2 10 -4z m639 -419 c19
-9 44 -17 56 -17 12 0 34 -9 48 -20 14 -11 29 -20 33 -20 4 0 20 -14 36 -32
25 -28 28 -39 28 -96 0 -57 -4 -69 -32 -106 -43 -57 -74 -82 -140 -117 -100
-51 -170 -62 -396 -63 -125 -1 -205 3 -210 9 -4 6 -19 16 -34 24 -15 8 -52 36
-82 62 -44 40 -56 58 -66 99 -19 78 -6 123 49 176 52 50 130 87 231 109 96 21
432 15 479 -8z m-899 -39 c0 -19 -2 -20 -10 -8 -13 19 -13 30 0 30 6 0 10 -10
10 -22z m-37 -117 c6 -25 -13 -43 -33 -31 -10 7 -11 10 -2 10 6 0 12 12 12 26
0 28 15 25 23 -5z m-13 -97 c0 -2 -7 -4 -15 -4 -8 0 -15 4 -15 10 0 5 7 7 15
4 8 -4 15 -8 15 -10z m897 -6116 c58 -29 49 -31 -37 -7 -45 12 -63 26 -54 41
6 9 17 5 91 -34z m118 -58 c3 -6 -1 -7 -9 -4 -18 7 -21 14 -7 14 6 0 13 -4 16
-10z m40 -20 c3 -5 2 -10 -4 -10 -5 0 -13 5 -16 10 -3 6 -2 10 4 10 5 0 13 -4
16 -10z"/>
<path d="M2400 11608 c0 -15 5 -30 10 -33 6 -3 10 -17 10 -31 0 -52 12 -60 91
-58 44 1 75 6 77 13 2 6 -8 11 -23 11 -24 0 -27 3 -23 28 3 15 8 34 12 43 10
23 -22 29 -73 16 -37 -10 -41 -9 -60 14 l-20 24 -1 -27z m100 -70 c0 -21 -5
-28 -20 -28 -14 0 -20 7 -20 23 0 28 5 34 25 34 10 0 15 -10 15 -29z"/>
<path d="M8539 9471 c-25 -19 -39 -20 -245 -21 -202 0 -222 -1 -271 -22 -35
-14 -53 -28 -53 -39 0 -22 16 -27 63 -19 21 4 59 3 85 -3 40 -10 43 -12 19
-15 -30 -4 -28 -22 3 -22 10 0 20 -4 22 -10 4 -12 102 -15 221 -5 l97 8 0 -26
c0 -24 4 -27 33 -27 45 -1 117 -22 147 -42 26 -19 60 -24 60 -9 0 6 19 12 43
14 l42 4 -41 1 c-49 2 -73 32 -26 32 23 0 31 7 46 41 10 22 16 41 15 43 -25
16 -65 24 -95 19 -29 -5 -36 -3 -32 8 2 8 15 15 29 17 13 1 41 7 61 14 l36 11
-29 31 c-27 29 -33 31 -116 34 -77 3 -91 1 -114 -17z m121 -111 c0 -5 -4 -10
-9 -10 -5 0 -12 -10 -14 -22 l-4 -23 -8 23 c-8 24 -45 31 -45 8 0 -8 -4 -18
-10 -21 -6 -3 -10 5 -10 19 0 22 5 25 43 29 23 2 45 4 50 5 4 1 7 -2 7 -8z"/>
<path d="M8116 9138 c-11 -6 -35 -11 -53 -10 -18 1 -33 -4 -33 -10 0 -7 -18
-9 -55 -5 -44 4 -55 3 -55 -9 0 -10 -12 -14 -39 -14 -26 0 -41 -5 -45 -15 -9
-24 17 -28 102 -17 89 11 102 5 102 -44 0 -24 5 -34 20 -39 11 -3 20 -11 20
-16 0 -5 20 -9 45 -9 25 0 74 -9 108 -21 52 -17 83 -21 187 -19 69 1 148 6
175 10 30 4 0 5 -72 2 l-123 -5 0 56 c0 44 3 57 15 57 8 0 15 5 15 11 0 15
-33 69 -42 69 -4 0 -8 6 -8 13 0 11 -16 13 -74 9 -41 -2 -83 -1 -93 3 -31 13
-77 14 -97 3z"/>
<path d="M7948 8968 c-16 -5 -28 -14 -28 -19 0 -11 64 -10 100 1 l25 7 -28 12
c-33 13 -33 13 -69 -1z"/>
<path d="M8866 8731 c-4 -7 -5 -15 -2 -18 9 -9 19 4 14 18 -4 11 -6 11 -12 0z"/>
<path d="M0 8345 c0 -39 3 -45 21 -45 11 0 27 7 35 15 13 13 13 17 -5 37 -12
12 -21 25 -21 30 0 4 -7 8 -15 8 -11 0 -15 -12 -15 -45z"/>
<path d="M80 8315 c0 -8 7 -15 15 -15 8 0 15 4 15 9 0 5 -7 11 -15 15 -9 3
-15 0 -15 -9z"/>
<path d="M7920 8256 c0 -13 -6 -27 -12 -29 -7 -3 16 -3 52 0 42 4 69 12 77 22
16 23 -1 31 -64 31 -49 0 -53 -2 -53 -24z"/>
<path d="M8160 8260 c0 -23 4 -24 32 -9 17 9 18 13 7 20 -23 15 -39 10 -39
-11z"/>
<path d="M7760 8245 c0 -12 14 -15 63 -15 61 0 62 0 33 15 -38 20 -96 20 -96
0z"/>
<path d="M8120 8201 c-56 -7 -63 -34 -11 -39 34 -4 91 14 91 28 0 7 -29 23
-33 18 -1 0 -22 -4 -47 -7z"/>
<path d="M6969 7039 c-8 -5 -9 -9 -4 -9 6 0 43 -3 83 -6 49 -4 72 -2 72 5 0 6
-8 11 -17 12 -10 0 -41 2 -69 4 -28 2 -57 -1 -65 -6z"/>
<path d="M780 7020 c-80 -27 -135 -51 -138 -60 -2 -6 -12 -10 -22 -10 -10 0
-28 -13 -40 -30 -12 -16 -28 -30 -36 -30 -19 0 -114 -100 -114 -119 0 -9 -12
-25 -27 -37 -25 -20 -26 -23 -13 -39 13 -15 13 -19 1 -23 -8 -3 -31 -20 -52
-39 -35 -32 -39 -40 -39 -84 0 -33 -5 -51 -15 -57 -13 -7 -14 -14 -6 -35 6
-15 17 -27 26 -27 8 0 15 -4 15 -10 0 -9 23 -7 88 6 26 5 30 -19 7 -42 -10
-11 -15 -36 -15 -82 1 -191 53 -324 173 -444 85 -85 101 -98 113 -98 13 0 85
-39 101 -55 7 -8 13 -18 13 -24 0 -6 8 -11 18 -11 10 0 22 -4 28 -8 10 -9 103
-46 119 -47 6 0 21 -6 35 -12 37 -16 96 -30 180 -43 41 -6 98 -15 125 -20 55
-9 350 3 460 19 91 14 213 40 245 53 49 20 166 51 197 52 17 0 29 4 27 7 -2 3
18 6 45 5 34 -1 47 -5 44 -13 -4 -9 7 -13 36 -13 31 0 41 4 41 16 0 11 5 14
16 10 9 -3 20 -6 25 -6 5 0 9 -6 9 -14 0 -15 37 -32 47 -22 3 3 0 19 -7 35
-15 37 -5 86 23 114 13 13 17 22 9 25 -7 2 -12 18 -12 35 0 28 6 35 48 57 49
26 58 52 26 76 -8 6 -14 18 -14 26 0 8 -5 19 -10 24 -13 13 -2 44 14 44 21 0
39 46 33 80 -4 17 -3 39 2 48 4 9 22 45 39 79 18 35 32 71 32 81 0 10 9 36 20
57 20 40 20 88 -1 101 -5 3 -31 -14 -57 -37 -113 -100 -146 -97 -612 63 -63
22 -128 43 -145 47 -63 17 -352 140 -440 187 -81 44 -285 143 -320 157 -22 8
-63 25 -92 36 -28 12 -82 28 -120 36 -37 8 -77 17 -88 19 -11 3 -31 1 -45 -4z
m867 -502 c29 -13 53 -29 53 -36 0 -9 -7 -11 -20 -8 -11 3 -30 9 -42 12 -45
10 -97 37 -92 45 9 15 47 10 101 -13z m-1160 -310 c-3 -8 -6 -5 -6 6 -1 11 2
17 5 13 3 -3 4 -12 1 -19z m383 -458 c12 -8 11 -10 -7 -10 -12 0 -25 5 -28 10
-8 13 15 13 35 0z m157 -49 c24 -5 49 -13 56 -19 7 -6 37 -16 65 -23 66 -14
73 -40 10 -32 -24 3 -51 10 -60 14 -9 5 -25 9 -36 9 -11 0 -25 6 -31 14 -7 8
-20 14 -29 14 -21 -2 -92 31 -92 42 0 4 17 4 38 -1 20 -5 56 -13 79 -18z m355
-66 c76 -7 100 -16 76 -31 -13 -8 -100 -7 -165 2 -34 5 -43 10 -43 26 0 16 5
19 28 14 15 -2 62 -8 104 -11z m246 -22 c-16 -2 -40 -2 -55 0 -16 2 -3 4 27 4
30 0 43 -2 28 -4z"/>
<path d="M6555 6991 c-6 -5 -32 -14 -60 -20 -27 -7 -77 -19 -110 -27 -145 -35
-222 -42 -384 -37 -160 6 -161 6 -161 -16 0 -11 -5 -21 -11 -21 -6 0 -24 -11
-41 -25 -32 -27 -107 -36 -109 -12 0 6 -6 -1 -13 -16 -7 -16 -33 -48 -58 -70
-26 -25 -49 -56 -54 -77 -7 -25 -16 -36 -32 -38 -18 -3 -22 -10 -23 -40 -2
-53 -6 -72 -23 -117 -19 -51 -20 -109 -2 -125 8 -6 20 -27 26 -46 6 -19 18
-34 26 -34 19 0 18 -17 -7 -56 -15 -25 -18 -38 -10 -52 6 -11 6 -23 1 -28 -8
-8 -23 -113 -21 -139 1 -5 3 -32 4 -58 2 -27 8 -52 14 -55 17 -11 27 -53 11
-50 -9 2 -13 -11 -13 -47 -1 -27 -6 -60 -13 -72 -10 -18 -9 -25 4 -38 13 -12
14 -19 5 -28 -24 -24 -12 -35 37 -30 26 3 51 9 55 13 10 9 61 -15 99 -46 17
-14 23 -24 15 -27 -9 -3 -9 -9 0 -29 12 -27 2 -48 -24 -48 -7 0 -13 -9 -13
-20 0 -14 7 -20 23 -20 13 0 32 -9 41 -19 9 -10 29 -21 44 -23 15 -3 34 -7 42
-9 10 -3 15 3 15 16 0 13 -8 21 -22 23 -26 4 -34 23 -37 102 -3 42 0 60 9 60
6 0 11 -10 11 -22 -1 -23 22 -35 49 -24 19 7 7 46 -15 46 -10 0 -21 7 -24 16
-4 10 -14 14 -26 11 -15 -4 -20 0 -20 13 0 13 6 17 19 13 22 -6 39 16 21 27
-22 13 20 28 82 29 31 0 81 -6 110 -14 262 -71 471 -100 652 -91 109 5 410 58
431 76 5 4 31 11 58 15 26 4 64 16 84 26 21 11 42 19 48 19 6 0 27 16 46 36
18 19 50 45 69 57 19 11 41 29 48 39 7 10 20 18 28 18 8 0 14 3 14 8 0 4 30
39 65 77 36 39 65 76 65 84 0 7 11 26 25 43 14 16 25 38 25 48 0 10 4 21 9 24
4 3 11 24 15 46 3 22 11 40 16 40 6 0 10 9 10 19 0 11 6 26 14 33 7 8 17 24
21 37 3 12 19 27 33 33 25 10 26 11 7 18 -20 8 -20 9 1 9 11 1 31 13 45 27 21
23 23 33 20 97 -2 49 -7 75 -17 80 -8 4 -14 16 -14 27 0 10 -15 30 -32 44 -18
15 -44 36 -56 46 -13 11 -28 20 -33 20 -5 0 -9 11 -9 25 0 16 -6 25 -15 25 -8
0 -15 4 -15 8 0 5 -22 18 -49 30 -27 12 -52 26 -56 31 -3 6 -25 15 -48 21 -23
6 -51 15 -62 20 -11 6 -74 22 -140 36 -100 22 -159 28 -360 35 -132 5 -269 8
-303 8 -43 0 -62 3 -57 10 8 13 -7 14 -20 2z m783 -305 c3 -12 -1 -17 -10 -14
-7 3 -15 13 -16 22 -3 12 1 17 10 14 7 -3 15 -13 16 -22z m-761 -52 c-3 -3
-12 -4 -19 -1 -8 3 -5 6 6 6 11 1 17 -2 13 -5z m-10 -20 c27 -7 39 -39 23 -59
-7 -8 -29 -14 -53 -13 -64 1 -77 7 -77 33 0 38 47 55 107 39z m634 -795 c20
-10 20 -11 1 -27 -27 -24 -126 -68 -197 -87 -33 -10 -72 -22 -87 -27 -15 -5
-31 -7 -37 -4 -5 3 -11 2 -13 -3 -12 -34 -406 -39 -451 -7 l-22 17 23 -7 c14
-3 30 0 40 9 18 16 62 7 62 -13 0 -13 63 -13 76 -1 5 5 50 14 99 19 50 5 104
14 120 20 17 6 57 18 90 28 33 10 76 25 95 33 19 8 44 16 55 18 11 2 28 11 37
21 21 20 81 27 109 11z m-821 -129 c0 -5 -9 -10 -20 -10 -11 0 -20 5 -20 10 0
6 9 10 20 10 11 0 20 -4 20 -10z"/>
<path d="M5440 5676 c0 -9 5 -16 10 -16 6 0 10 4 10 9 0 6 -4 13 -10 16 -5 3
-10 -1 -10 -9z"/>
<path d="M2338 5551 c-16 -30 -14 -41 7 -41 11 0 35 41 35 60 0 21 -26 8 -42
-19z"/>
<path d="M5460 5525 c0 -8 7 -15 15 -15 8 0 15 7 15 15 0 8 -7 15 -15 15 -8 0
-15 -7 -15 -15z"/>
<path d="M2186 5477 c-17 -13 -17 -14 8 -30 28 -19 35 -13 33 26 0 20 -16 22
-41 4z"/>
<path d="M2297 5389 c7 -7 15 -10 18 -7 3 3 -2 9 -12 12 -14 6 -15 5 -6 -5z"/>
<path d="M2440 5325 c0 -20 39 -40 52 -27 7 7 6 16 -5 26 -20 20 -47 21 -47 1z"/>
<path d="M7885 4520 c-114 -7 -203 -20 -270 -40 -16 -5 -55 -11 -85 -14 -30
-3 -80 -15 -110 -26 -30 -12 -82 -27 -115 -32 -33 -6 -64 -16 -68 -24 -4 -8
-20 -14 -34 -14 -27 0 -45 -5 -158 -42 -89 -30 -128 -49 -147 -72 -25 -30 -23
-81 4 -106 24 -22 48 -26 48 -8 0 6 6 4 13 -6 12 -17 35 -19 280 -20 261 -2
266 -2 285 -24 11 -12 24 -22 31 -22 6 0 11 -4 11 -9 0 -4 15 -12 33 -17 25
-8 38 -21 60 -64 31 -61 33 -88 12 -133 -8 -18 -24 -57 -35 -87 -12 -30 -25
-57 -29 -60 -4 -3 -25 -41 -47 -85 -21 -44 -44 -86 -51 -93 -6 -6 -15 -21 -18
-32 -3 -11 -11 -20 -16 -20 -5 0 -13 -8 -16 -17 -4 -10 -28 -46 -55 -79 -26
-34 -48 -66 -48 -70 -1 -5 -19 -22 -42 -39 -22 -16 -56 -45 -75 -62 -19 -18
-39 -33 -44 -33 -4 0 -36 -13 -71 -29 -112 -51 -142 -60 -235 -72 -53 -7 -93
-18 -93 -24 0 -30 -126 -37 -351 -20 -60 5 -78 3 -88 -9 -10 -11 -10 -20 -1
-37 10 -17 9 -23 -1 -30 -22 -14 -261 -14 -288 0 -9 5 -51 11 -93 15 -74 6
-78 6 -78 -14 0 -21 -28 -28 -46 -11 -11 12 -102 16 -125 7 -9 -4 -21 -1 -28
7 -9 12 -20 13 -51 5 -45 -12 -43 -32 1 -26 19 3 29 0 29 -8 0 -8 6 -11 15 -8
19 8 85 -4 85 -15 0 -15 -64 -19 -100 -6 -19 7 -62 16 -94 19 -33 2 -62 10
-66 16 -4 6 -24 10 -46 9 -21 -1 -73 7 -114 19 -41 11 -77 19 -79 16 -3 -3 9
-17 27 -32 18 -16 29 -31 26 -35 -4 -4 -14 -1 -22 5 -8 7 -35 13 -61 14 -25 1
-68 10 -94 20 -40 16 -49 17 -56 5 -10 -16 -77 -7 -83 11 -2 6 -31 13 -63 15
-33 2 -73 11 -90 18 -51 24 -118 36 -127 22 -5 -9 -10 -9 -20 1 -6 6 -22 12
-33 12 -12 0 -41 9 -65 21 -23 11 -68 27 -99 35 -30 8 -63 21 -71 29 -9 8 -20
15 -24 15 -4 0 -21 13 -37 29 -31 32 -26 43 20 45 21 1 27 7 29 31 2 16 9 33
14 36 6 4 12 24 13 45 2 26 11 47 29 64 14 15 26 30 26 34 0 10 91 96 102 96
4 0 11 14 15 30 5 27 9 30 43 30 58 0 97 17 96 42 -1 27 56 68 95 68 34 0 44
13 24 30 -22 18 -18 29 13 36 15 4 48 22 73 40 26 19 51 34 57 34 14 0 62 58
62 75 0 7 -6 15 -12 18 -12 4 -2 10 67 37 19 7 25 17 25 41 0 33 34 99 51 99
5 0 14 10 20 23 5 12 21 42 34 67 30 57 30 57 -5 75 -38 19 -117 19 -165 -1
-21 -8 -44 -13 -53 -9 -8 3 -18 1 -22 -5 -5 -8 -18 -5 -41 9 -19 12 -44 21
-57 21 -24 0 -44 31 -24 38 23 7 12 24 -12 20 -20 -4 -26 0 -28 16 -3 24 -53
35 -71 17 -14 -14 -87 -14 -87 -1 0 18 -71 11 -97 -10 -14 -11 -34 -20 -44
-20 -11 0 -19 -4 -19 -10 0 -5 9 -10 20 -10 11 0 20 -4 20 -9 0 -13 -25 -20
-48 -15 -13 4 -26 -3 -40 -20 -16 -21 -29 -26 -63 -26 -38 0 -107 -33 -129
-62 -3 -3 -64 -7 -135 -8 -180 -3 -185 -2 -185 15 0 11 -13 15 -54 15 -30 0
-58 -5 -61 -11 -4 -5 -17 -9 -28 -8 -25 2 -59 -10 -69 -25 -5 -7 -18 -7 -41 2
-45 16 -67 15 -67 -3 0 -12 -16 -15 -80 -15 -44 0 -80 -4 -80 -9 0 -6 -21 -11
-47 -13 -41 -3 -48 -6 -51 -25 -4 -28 -7 -28 -32 -3 -12 12 -25 18 -31 14 -6
-3 -18 1 -27 9 -9 8 -34 15 -56 15 -59 2 -108 23 -103 44 3 10 1 21 -4 24 -14
8 -47 -5 -51 -21 -2 -11 -7 -12 -18 -4 -11 8 -12 12 -2 16 19 7 14 23 -8 23
-10 0 -25 -10 -31 -22 -11 -21 -12 -21 -24 8 -6 16 -8 31 -3 32 17 7 7 31 -14
34 -28 4 -28 20 1 33 39 18 22 25 -59 25 -79 0 -80 0 -80 -25 0 -23 -30 -65
-48 -65 -4 0 -18 -14 -32 -32 -14 -17 -29 -37 -35 -44 -8 -10 -24 -10 -81 0
-120 21 -123 6 -20 -101 112 -116 125 -135 119 -165 -6 -33 38 -93 82 -109 74
-27 133 -61 142 -82 8 -17 20 -24 41 -25 46 -1 70 -18 103 -71 16 -27 38 -51
50 -54 16 -4 18 -11 13 -31 -5 -21 -2 -27 20 -36 16 -6 33 -24 41 -44 8 -19
19 -37 24 -40 5 -3 18 -24 30 -46 17 -33 19 -45 10 -62 -10 -19 -9 -20 17 -15
16 4 23 4 17 1 -24 -10 -13 -24 17 -24 28 0 30 -3 28 -27 -3 -25 1 -28 30 -31
37 -4 43 -25 12 -44 -11 -7 -20 -22 -20 -33 0 -19 -42 -46 -76 -49 -6 -1 -18
-7 -27 -15 -9 -7 -21 -10 -27 -6 -20 12 -143 10 -148 -3 -2 -7 -12 -12 -23
-12 -10 0 -19 -4 -19 -9 0 -13 -119 -68 -165 -76 -90 -15 -100 -19 -115 -35
-23 -26 -84 -33 -104 -11 -9 10 -16 25 -16 34 0 12 -9 17 -30 17 -20 0 -30 -5
-30 -15 0 -10 -16 -16 -50 -21 -28 -4 -53 -11 -56 -15 -3 -5 -20 -9 -39 -9
-18 0 -35 -5 -37 -12 -3 -9 -12 -9 -38 0 -39 14 -120 16 -120 3 0 -5 -18 -8
-40 -7 -31 0 -40 5 -40 18 0 20 -15 24 -26 7 -3 -6 -17 -8 -29 -5 -13 3 -25 2
-27 -3 -4 -12 -80 -17 -97 -6 -17 10 -190 7 -316 -5 -59 -5 -106 -4 -138 3
-37 8 -59 8 -95 -2 -26 -7 -56 -15 -67 -17 -11 -1 -45 -10 -75 -18 -30 -9 -78
-21 -107 -26 -47 -10 -54 -9 -73 10 -16 16 -33 20 -88 20 -43 0 -81 6 -100 16
-18 8 -36 13 -41 10 -5 -4 -12 -2 -16 4 -3 5 -29 10 -56 10 -35 0 -51 4 -55
15 -5 12 -25 15 -89 15 -74 0 -84 2 -99 23 -9 12 -14 16 -11 10 4 -8 -1 -13
-15 -13 -17 0 -19 4 -14 26 6 25 6 25 -42 19 -27 -3 -62 -8 -79 -11 -16 -3
-57 -8 -90 -12 -33 -5 -71 -14 -84 -21 -13 -7 -52 -21 -85 -30 -48 -13 -61
-20 -61 -36 0 -21 42 -33 118 -34 30 -1 37 -5 37 -20 0 -16 -8 -21 -43 -24
l-42 -4 43 -1 c38 -2 42 -4 42 -28 l0 -26 78 6 c154 13 197 15 182 9 -8 -3
-18 -12 -23 -19 -4 -7 -23 -16 -42 -20 -48 -9 -44 -20 13 -30 45 -9 47 -10 50
-47 3 -35 5 -37 30 -30 15 3 28 10 30 15 2 4 12 8 22 8 11 0 41 8 67 19 26 10
54 16 61 14 6 -3 12 0 12 5 0 6 15 13 33 17 17 4 48 14 67 22 38 18 190 31
190 17 0 -13 -97 -53 -155 -63 -27 -5 -51 -14 -53 -20 -2 -6 -19 -11 -37 -11
-28 0 -137 -49 -110 -50 6 0 21 -3 34 -7 16 -4 22 -3 17 5 -3 6 -2 13 4 17 6
4 9 -11 7 -39 -2 -42 -1 -45 18 -40 11 4 28 13 37 21 9 8 21 13 26 10 23 -15
148 51 162 85 5 13 9 17 9 11 1 -15 41 -18 41 -4 0 5 11 12 25 15 40 10 31 29
-10 22 -28 -6 -35 -4 -35 9 0 12 12 15 58 15 42 0 53 3 42 11 -11 7 -4 8 26 4
23 -4 76 -2 119 4 50 7 83 8 93 1 14 -7 10 -9 -15 -10 -21 0 -33 -5 -33 -14 0
-7 -15 -19 -32 -26 -18 -6 -46 -17 -63 -25 -16 -7 -47 -20 -67 -29 -20 -9 -40
-21 -43 -26 -3 -5 -30 -12 -60 -15 -30 -4 -55 -11 -55 -15 0 -5 -28 -18 -62
-29 -35 -12 -81 -32 -103 -46 -22 -13 -52 -30 -67 -36 -36 -14 -35 -24 5 -39
25 -10 28 -14 14 -17 -36 -9 -57 -35 -46 -56 14 -25 44 -20 247 44 72 23 102
21 51 -4 -19 -9 -43 -25 -54 -37 -10 -11 -28 -20 -39 -21 -12 0 -29 -4 -40 -8
-16 -6 -15 -11 18 -44 20 -21 36 -42 36 -47 0 -6 9 -10 20 -10 11 0 20 -6 20
-12 1 -7 9 -3 18 8 21 25 102 43 102 24 0 -7 -9 -14 -20 -17 -11 -3 -20 -9
-20 -13 0 -11 -49 -27 -84 -29 -17 -1 -32 -5 -36 -10 -6 -11 -37 -15 -102 -13
-41 2 -48 5 -48 22 0 23 -12 25 -40 8 -15 -10 -27 -10 -52 0 -28 10 -42 8 -93
-11 -33 -12 -71 -29 -85 -38 -14 -9 -41 -20 -62 -23 -40 -7 -62 -36 -26 -36
12 0 18 -3 15 -6 -4 -4 -45 -8 -92 -9 -75 -1 -88 -4 -101 -23 -15 -22 -67 -31
-78 -14 -9 15 12 34 37 35 14 0 36 10 48 23 13 14 34 24 51 24 16 0 28 5 28
13 0 21 -22 37 -52 37 -19 0 -28 5 -28 15 0 12 -4 13 -19 5 -11 -5 -28 -10
-38 -10 -10 0 -30 -6 -44 -13 -44 -23 -103 -28 -143 -12 -75 32 -76 30 -76
-105 0 -66 2 -120 4 -120 3 0 17 5 32 10 27 11 64 5 64 -9 0 -12 -76 -35 -89
-27 -7 5 -11 -2 -11 -18 0 -14 5 -26 12 -26 9 0 9 -3 0 -12 -7 -7 -12 -27 -12
-45 0 -33 0 -33 49 -33 40 0 54 -5 80 -29 17 -16 31 -36 31 -44 0 -9 9 -19 21
-22 12 -4 18 -12 15 -21 -4 -9 4 -18 20 -24 19 -7 25 -16 21 -29 -4 -16 0 -17
30 -11 35 8 56 20 35 20 -7 0 -12 16 -12 40 0 29 4 40 15 40 9 0 15 -9 15 -24
0 -13 7 -26 15 -30 19 -7 19 -26 0 -26 -11 0 -15 -11 -15 -40 0 -36 3 -40 24
-40 13 0 26 -6 29 -14 3 -8 21 -16 39 -18 25 -2 34 -8 36 -24 2 -12 12 -24 23
-27 10 -3 16 -1 13 4 -10 17 50 -3 67 -22 17 -19 84 -38 137 -39 27 0 32 -4
32 -25 0 -22 4 -25 40 -25 32 0 45 -7 75 -37 27 -28 45 -38 78 -41 23 -2 44
-7 47 -11 3 -5 22 -11 43 -15 20 -4 37 -13 37 -20 0 -7 22 -16 53 -22 53 -9
73 -35 32 -42 -33 -6 -42 -22 -13 -22 17 0 29 -7 33 -19 10 -31 41 -61 64 -61
23 0 62 -19 73 -35 35 -51 36 -52 58 -25 l20 25 0 -23 c0 -13 4 -20 10 -17 6
3 17 -1 26 -9 8 -9 22 -16 30 -16 8 0 14 -4 14 -10 0 -5 7 -10 15 -10 8 0 23
-9 32 -20 10 -11 27 -20 39 -20 17 0 21 -5 17 -20 -4 -16 1 -21 26 -26 21 -5
31 -12 31 -25 0 -16 6 -18 40 -15 33 3 40 1 38 -13 -3 -13 7 -16 63 -16 39 0
72 -5 81 -13 12 -10 17 -10 20 -1 3 8 14 10 32 5 17 -4 26 -12 23 -20 -4 -9 9
-13 46 -14 29 0 53 -6 55 -11 2 -6 22 -11 45 -12 38 0 40 -1 20 -11 -23 -11
-31 -28 -13 -28 5 0 34 -16 64 -35 56 -36 120 -47 128 -23 3 8 14 3 32 -15 28
-28 46 -35 46 -17 0 6 18 10 40 10 35 0 40 -3 40 -24 0 -20 7 -25 44 -35 25
-6 59 -11 76 -11 34 0 90 -25 90 -40 0 -6 11 -16 25 -22 14 -6 25 -17 25 -25
0 -7 10 -18 23 -23 12 -6 29 -14 37 -19 8 -6 28 -13 44 -16 15 -3 30 -14 33
-23 4 -17 38 -30 118 -48 17 -4 36 -11 42 -17 7 -5 29 -6 48 -3 22 4 35 3 35
-4 0 -5 22 -10 50 -10 28 0 50 -4 50 -10 0 -5 14 -10 30 -10 20 0 30 -5 30
-15 0 -8 9 -15 20 -15 11 0 23 -8 26 -17 3 -10 11 -29 17 -42 9 -19 13 -20 15
-8 4 22 3 23 46 -18 35 -32 40 -55 14 -55 -7 0 -22 -10 -35 -22 -13 -12 -23
-16 -23 -9 0 7 -4 9 -10 6 -5 -3 -10 -13 -10 -21 0 -12 149 -14 1100 -14 1041
0 1102 1 1128 18 15 10 36 23 47 29 11 6 19 16 18 22 -3 11 31 33 57 37 8 2
23 13 33 25 14 17 24 20 53 16 48 -8 64 0 64 34 0 27 3 29 40 29 43 0 49 6 25
24 -11 8 -12 15 -4 26 8 11 12 12 16 3 5 -15 83 -18 83 -4 0 5 20 15 45 22 25
7 45 17 45 22 0 4 -4 6 -8 3 -5 -3 -6 9 -4 25 4 24 9 29 26 27 13 -2 22 -11
24 -26 4 -24 32 -31 32 -8 0 8 7 16 15 20 8 3 15 10 15 16 0 5 -7 10 -15 10
-8 0 -15 7 -15 15 0 11 9 15 28 13 15 -1 33 1 40 6 7 4 12 3 12 -3 0 -5 -5
-12 -10 -14 -6 -3 -5 -4 2 -3 7 1 21 26 32 54 16 46 36 69 36 42 0 -5 6 -10
14 -10 9 0 17 15 21 40 6 35 10 40 34 40 24 0 30 6 41 40 11 34 17 40 42 40
24 0 28 4 28 28 0 20 7 30 27 40 15 6 33 12 40 12 8 0 13 12 13 29 0 27 4 29
60 42 53 12 59 15 54 35 -4 17 2 26 30 43 21 13 40 36 48 57 7 21 19 34 30 34
10 0 18 6 18 14 0 7 9 16 20 19 11 3 20 13 20 22 0 23 29 44 61 45 14 0 34 6
44 14 17 12 18 17 7 40 -15 34 -15 36 1 36 8 0 22 9 32 20 11 13 25 18 37 14
14 -4 18 0 18 19 0 20 9 28 40 41 22 9 40 20 40 25 0 5 8 12 18 15 40 15 73
39 94 69 12 18 35 44 50 59 20 19 28 36 28 61 0 46 19 97 36 97 8 0 14 -7 14
-15 0 -8 7 -15 15 -15 8 0 15 5 15 10 0 6 -4 10 -10 10 -23 0 -8 20 24 31 22
8 32 17 29 26 -3 7 -2 33 1 57 l7 44 95 0 c94 -1 95 0 123 31 20 23 31 29 36
20 13 -20 37 38 30 71 -8 35 0 40 71 45 32 2 64 11 74 20 9 8 20 15 24 15 11
0 42 33 62 68 10 17 27 35 37 38 26 8 17 23 -28 48 -22 11 -42 23 -45 26 -3 3
-52 29 -110 59 -58 29 -109 57 -115 61 -5 3 -29 12 -52 19 -24 6 -43 16 -43
21 0 6 -6 10 -13 10 -7 0 -24 13 -38 29 -24 28 -25 29 -7 51 10 12 18 28 18
35 0 8 20 14 57 17 31 3 59 10 61 16 2 6 25 14 52 18 44 6 48 8 37 24 -6 10
-23 21 -39 24 -37 7 -36 25 2 33 17 3 33 9 35 13 10 17 -8 40 -31 40 -13 0
-24 5 -24 11 0 11 7 11 100 -10 48 -10 56 -9 45 8 -3 6 -26 11 -51 11 -24 0
-44 5 -44 10 0 6 -11 10 -25 10 -14 0 -25 5 -25 10 0 6 11 10 25 10 18 0 25 5
25 20 0 23 4 24 31 9 15 -8 18 -14 9 -24 -8 -10 -4 -13 17 -16 44 -6 75 1 69
16 -2 7 4 21 15 31 24 21 24 26 -1 54 -11 13 -20 31 -20 41 0 26 46 36 69 15
10 -9 27 -16 39 -16 11 0 24 -5 28 -11 3 -6 18 -9 31 -6 14 3 41 0 60 -5 36
-10 77 -2 68 13 -4 5 -17 9 -31 9 -13 0 -24 3 -24 8 0 4 -15 13 -32 20 -18 7
-41 18 -50 23 -10 5 -27 9 -38 9 -11 0 -20 4 -20 9 0 18 31 20 87 5 67 -18
173 -26 173 -13 0 5 -12 9 -26 9 -20 0 -24 4 -19 19 5 15 -2 22 -37 35 -24 8
-52 16 -63 18 -11 2 -19 8 -17 13 3 11 65 7 101 -7 24 -9 77 -19 199 -34 l42
-6 0 45 0 44 -52 -3 c-29 -2 -45 -1 -35 2 21 7 22 23 2 30 -8 4 -15 11 -15 16
0 15 -32 37 -52 38 -10 0 -18 3 -18 8 0 4 -27 18 -60 31 -66 26 -78 37 -61 54
8 8 2 18 -22 38 -25 21 -29 30 -20 39 9 10 18 9 42 -1 17 -8 31 -17 31 -21 0
-5 8 -8 19 -8 10 0 24 -7 31 -15 11 -13 8 -15 -19 -15 -49 0 -36 -17 19 -24
61 -8 135 -39 143 -59 3 -8 22 -18 43 -22 21 -4 51 -13 66 -21 31 -16 133 -18
197 -3 76 17 174 69 131 69 -15 0 -1 51 20 75 12 14 19 45 23 100 8 102 10
108 59 140 28 19 37 30 28 35 -17 10 -5 16 68 31 65 14 74 21 45 38 -10 6 -12
11 -5 11 8 0 12 23 12 79 l0 79 -33 6 c-32 6 -74 42 -62 54 3 4 9 1 13 -5 10
-17 82 -5 82 13 0 8 6 11 16 7 16 -6 16 -7 0 -18 -24 -18 -20 -22 24 -22 42 0
52 10 23 21 -14 6 -15 9 -4 15 11 7 8 13 -13 26 -14 9 -24 21 -21 25 8 13 54
18 59 6 2 -6 5 -1 5 12 1 15 7 22 21 22 13 0 18 5 13 16 -4 11 -13 13 -34 9
-35 -8 -139 21 -140 38 0 7 0 31 1 54 1 37 -2 43 -22 47 -45 9 -88 12 -88 6 0
-3 -17 -12 -37 -19 -27 -10 -38 -11 -41 -2 -5 15 -59 14 -66 -1 -5 -10 -7 -10
-12 0 -3 6 -14 12 -24 12 -15 0 -19 12 -25 81 -6 71 -9 80 -25 76 -12 -3 -17
0 -14 8 3 7 -5 30 -18 52 -14 21 -30 53 -37 71 -8 17 -17 32 -22 32 -5 0 -9
18 -9 41 0 34 -6 47 -39 79 -28 28 -49 40 -77 43 l-39 4 43 1 c30 2 42 6 42
17 0 23 -77 19 -124 -6 -36 -19 -39 -19 -64 -3 -17 11 -43 16 -79 15 -42 -1
-53 2 -53 14 0 17 2 17 -195 5z m995 -840 c0 -5 -15 -10 -32 -9 -31 1 -32 1
-8 9 35 11 40 11 40 0z m-3983 -761 c18 1 35 -4 38 -9 10 -17 -89 -12 -111 6
-18 15 -18 15 11 9 17 -4 44 -6 62 -6z m1998 -47 c-6 -4 -30 -5 -55 -1 l-45 6
43 1 c25 1 42 7 42 14 0 9 3 9 12 0 7 -7 8 -15 3 -20z m-175 -4 c0 -6 -13 -8
-31 -4 -17 3 -43 6 -58 6 -15 0 -21 3 -14 8 17 10 103 2 103 -10z m-5093 -154
c-3 -3 -12 -4 -19 -1 -8 3 -5 6 6 6 11 1 17 -2 13 -5z m138 -28 c35 -30 28
-51 -18 -60 -56 -10 -84 8 -52 34 8 7 15 21 15 31 0 26 21 24 55 -5z m4415 15
c0 -5 -7 -12 -16 -15 -22 -9 -24 -8 -24 9 0 8 9 15 20 15 11 0 20 -4 20 -9z
m-981 -37 c10 -9 -55 -3 -69 6 -10 6 -2 7 25 3 22 -3 42 -7 44 -9z m-4002 -90
c-3 -3 -12 -4 -19 -1 -8 3 -5 6 6 6 11 1 17 -2 13 -5z m6463 -38 c0 -11 -19
-15 -25 -6 -3 5 1 10 9 10 9 0 16 -2 16 -4z m-6827 -183 c-7 -2 -19 -2 -25 0
-7 3 -2 5 12 5 14 0 19 -2 13 -5z m367 -93 c0 -5 -7 -10 -16 -10 -8 0 -12 5
-9 10 3 6 10 10 16 10 5 0 9 -4 9 -10z m-296 -151 c-8 -14 -24 -10 -24 6 0 9
6 12 15 9 8 -4 12 -10 9 -15z m-86 -47 c-10 -2 -18 -12 -18 -21 0 -15 -10 -19
-52 -23 -29 -3 -54 -11 -56 -17 -2 -6 -8 -11 -13 -11 -5 0 -1 14 9 32 12 22
27 33 47 35 16 2 35 8 43 12 8 5 24 6 36 3 18 -5 18 -7 4 -10z m-613 -72 c-3
-5 -15 -10 -26 -10 -10 0 -19 5 -19 10 0 6 12 10 26 10 14 0 23 -4 19 -10z
m835 -734 c0 -9 -7 -12 -20 -9 -31 8 -34 23 -6 23 16 0 26 -6 26 -14z m1403
-703 c-7 -2 -19 -2 -25 0 -7 3 -2 5 12 5 14 0 19 -2 13 -5z m862 -363 c3 -5
-1 -10 -9 -10 -9 0 -16 5 -16 10 0 6 4 10 9 10 6 0 13 -4 16 -10z"/>
<path d="M0 4435 c0 -9 9 -15 24 -15 30 0 42 15 20 24 -27 10 -44 7 -44 -9z"/>
<path d="M0 3865 c0 -250 3 -455 8 -455 4 1 34 8 67 16 33 8 96 22 140 30 78
14 159 35 220 56 17 5 48 14 70 19 22 5 81 20 130 34 l90 26 -136 -6 c-74 -2
-181 -10 -237 -16 -93 -11 -125 -9 -110 6 3 3 59 10 124 15 130 11 419 57 447
71 21 12 22 29 2 29 -8 0 -15 5 -15 11 0 6 -5 7 -12 2 -7 -4 -38 -9 -68 -10
-51 -1 -98 -7 -110 -13 -3 -1 -30 -2 -60 0 -87 3 -88 22 -1 32 14 2 26 9 29
17 3 10 -2 11 -19 5 -13 -4 -40 -8 -59 -8 -26 0 -36 4 -38 18 -3 14 0 17 11
13 11 -4 14 -1 11 8 -3 7 -13 16 -22 20 -13 5 -12 10 11 29 l28 24 -51 7 c-55
8 -63 14 -49 35 8 13 11 12 20 -2 13 -22 55 -23 63 -2 8 22 9 22 -18 17 -15
-3 -25 1 -29 11 -5 12 0 16 16 16 29 0 40 9 55 43 18 42 15 54 -15 60 -16 3
-41 10 -57 17 -28 10 -28 11 -10 31 10 11 33 27 51 34 39 16 45 45 9 45 -13 0
-26 7 -30 15 -3 9 -18 15 -40 15 -19 0 -38 5 -42 12 -10 16 24 38 59 38 44 0
28 23 -27 37 -33 8 -56 9 -74 2 -14 -5 -32 -7 -40 -4 -22 8 -186 -16 -194 -28
-4 -6 -11 -8 -15 -3 -4 5 -2 11 5 13 14 5 17 63 2 63 -5 0 -10 -7 -10 -15 0
-21 -12 -19 -33 5 -9 11 -24 20 -32 20 -13 0 -15 -56 -15 -455z m155 -321
c-63 -15 -146 -18 -125 -4 8 5 33 10 55 10 22 0 46 4 53 9 7 4 25 5 40 2 24
-4 21 -7 -23 -17z"/>
<path d="M8546 4251 c-4 -7 -5 -15 -2 -18 9 -9 19 4 14 18 -4 11 -6 11 -12 0z"/>
<path d="M3710 4200 c0 -5 4 -10 9 -10 6 0 13 5 16 10 3 6 -1 10 -9 10 -9 0
-16 -4 -16 -10z"/>
<path d="M8720 4180 c0 -17 7 -20 43 -20 24 0 46 3 50 6 13 13 -23 34 -57 34
-29 0 -36 -4 -36 -20z"/>
<path d="M3578 4153 c7 -3 16 -2 19 1 4 3 -2 6 -13 5 -11 0 -14 -3 -6 -6z"/>
<path d="M7197 3743 c18 -2 50 -2 70 0 21 2 7 4 -32 4 -38 0 -55 -2 -38 -4z"/>
<path d="M570 3473 c-41 -8 -120 -26 -175 -40 -55 -14 -120 -29 -145 -33 -25
-4 -56 -12 -70 -18 -29 -12 68 -9 265 8 110 9 125 13 175 44 91 57 82 64 -50
39z"/>
<path d="M6986 3463 c-18 -5 -18 -6 5 -19 23 -13 23 -13 -19 -14 -23 0 -55 -8
-69 -17 -18 -12 -69 -22 -157 -31 -72 -7 -143 -14 -158 -16 -16 -2 -40 -4 -55
-6 -16 -1 -22 -4 -15 -7 6 -2 12 -11 12 -19 0 -19 -47 -18 -105 2 -26 8 -55
12 -68 8 -12 -4 -35 -6 -52 -6 -42 2 -107 -28 -103 -47 3 -12 23 -18 93 -24
147 -13 207 -15 194 -6 -8 4 -11 9 -9 11 36 23 89 46 94 40 4 -4 31 -7 59 -8
29 0 79 -3 112 -7 l60 -8 -58 29 c-32 16 -59 34 -60 38 -3 15 145 14 199 -1
50 -14 194 -17 172 -4 -7 4 5 10 25 14 71 14 118 78 65 89 -40 8 -142 13 -162
9z m-561 -156 c16 -5 15 -5 -4 -4 -14 1 -26 9 -28 17 -3 10 -2 11 4 4 4 -7 17
-14 28 -17z"/>
<path d="M52 3360 c-18 -4 -36 -11 -40 -15 -10 -11 101 5 113 16 11 11 -26 10
-73 -1z"/>
<path d="M398 3359 c-2 -7 -42 -15 -93 -19 -50 -5 -120 -13 -157 -19 -36 -6
-73 -9 -80 -6 -8 3 -27 1 -41 -4 -26 -10 -27 -13 -27 -92 0 -70 2 -80 16 -75
9 3 66 11 127 16 62 6 130 15 152 20 22 5 78 12 125 16 47 3 101 10 120 15 46
12 117 12 105 0 -6 -5 -55 -17 -110 -26 -55 -9 -134 -23 -175 -32 -41 -8 -86
-18 -100 -20 -25 -5 -104 -28 -207 -60 -51 -16 -67 -35 -40 -47 9 -5 9 -7 0
-12 -8 -3 -13 -25 -13 -51 0 -42 1 -45 23 -39 12 4 54 12 92 17 39 6 86 16
105 24 19 7 73 25 120 40 47 14 94 30 105 35 11 5 47 18 79 30 33 11 74 33 90
49 17 15 46 37 64 47 17 10 32 21 32 24 0 6 43 3 86 -5 11 -3 33 -14 47 -25
21 -17 45 -22 117 -26 81 -4 90 -3 90 13 1 30 23 48 62 50 20 1 45 6 55 12 16
9 15 11 -11 21 -17 6 -32 7 -35 2 -3 -5 -29 -12 -58 -15 -38 -4 -55 -2 -63 9
-7 8 -19 14 -26 14 -8 0 -14 4 -14 8 0 9 -72 0 -101 -12 -9 -4 -43 0 -75 9
-33 9 -95 24 -139 33 -74 16 -80 19 -80 42 0 18 -8 29 -29 38 -36 15 -133 16
-138 1z m562 -139 c0 -5 -4 -10 -10 -10 -5 0 -10 5 -10 10 0 6 5 10 10 10 6 0
10 -4 10 -10z"/>
<path d="M5915 3320 c-3 -5 1 -10 9 -10 9 0 16 5 16 10 0 6 -4 10 -9 10 -6 0
-13 -4 -16 -10z"/>
<path d="M6024 3279 c-3 -5 1 -9 10 -9 8 0 21 -3 30 -6 9 -3 16 -2 16 4 0 13
-49 22 -56 11z"/>
<path d="M1018 3273 c7 -3 16 -2 19 1 4 3 -2 6 -13 5 -11 0 -14 -3 -6 -6z"/>
<path d="M6164 3272 c4 -7 -5 -9 -31 -5 -45 7 -36 -8 16 -26 48 -16 61 -14 61
9 0 11 -4 20 -9 20 -5 0 -17 3 -27 7 -11 4 -15 3 -10 -5z"/>
<path d="M1785 3204 c-29 -26 -29 -26 -5 -20 14 3 33 6 43 6 10 0 17 8 17 20
0 27 -19 25 -55 -6z"/>
<path d="M2054 3221 c-59 -14 -60 -23 -9 -48 43 -20 53 -21 82 -11 24 9 33 18
33 34 0 33 -36 41 -106 25z"/>
<path d="M1200 3200 c0 -5 -11 -10 -25 -10 -36 0 -31 -17 7 -22 20 -3 42 1 55
9 15 10 33 12 54 8 24 -5 30 -4 27 6 -6 17 -118 26 -118 9z"/>
<path d="M8000 2661 c0 -13 37 -24 51 -15 8 4 7 9 -2 15 -19 12 -49 11 -49 0z"/>
<path d="M7835 2532 c15 -16 65 -26 65 -13 0 6 -6 11 -12 11 -7 0 -24 3 -38 6
-17 5 -22 4 -15 -4z"/>
<path d="M7708 2503 c6 -2 18 -2 25 0 6 3 1 5 -13 5 -14 0 -19 -2 -12 -5z"/>
<path d="M7755 2490 c3 -5 15 -10 26 -10 11 0 17 5 14 10 -3 6 -15 10 -26 10
-11 0 -17 -4 -14 -10z"/>
<path d="M664 2475 c-4 -10 -13 -13 -25 -10 -24 8 -25 -10 -2 -19 10 -4 20 -1
25 9 5 8 18 15 29 15 11 0 17 5 14 10 -9 15 -35 12 -41 -5z"/>
<path d="M722 2370 c0 -14 2 -19 5 -12 2 6 2 18 0 25 -3 6 -5 1 -5 -13z"/>
<path d="M8030 2272 c0 -17 -12 -20 -122 -26 -143 -7 -208 -16 -208 -26 0 -8
66 -55 110 -78 14 -7 34 -22 46 -33 11 -10 33 -19 48 -19 15 0 35 -4 45 -10
13 -7 27 -3 55 16 22 15 46 24 57 21 13 -4 19 0 19 12 0 12 14 22 40 31 46 15
55 44 16 54 -13 3 -26 15 -29 27 -4 16 -11 19 -26 14 -12 -4 -21 -2 -21 4 0 6
5 11 10 11 6 0 10 5 10 10 0 6 -11 10 -25 10 -18 0 -25 -5 -25 -18z"/>
<path d="M953 2190 c0 -25 2 -35 4 -22 2 12 2 32 0 45 -2 12 -4 2 -4 -23z"/>
<path d="M2910 10 c0 -5 9 -10 20 -10 11 0 20 5 20 10 0 6 -9 10 -20 10 -11 0
-20 -4 -20 -10z"/>
<path d="M3095 10 c-4 -6 15 -10 49 -10 31 0 56 5 56 10 0 6 -22 10 -49 10
-28 0 -53 -4 -56 -10z"/>
<path d="M2978 3 c6 -2 18 -2 25 0 6 3 1 5 -13 5 -14 0 -19 -2 -12 -5z"/>
</g>
</svg>
